<svg width="54" height="54" viewBox="0 0 54 54" fill="none" xmlns="http://www.w3.org/2000/svg">
<circle cx="16" cy="22" r="14.5" stroke="#909294"/>
<path d="M2 40.5C2 40.2239 1.77614 40 1.5 40C1.22386 40 1 40.2239 1 40.5H2ZM1 43.5C1 43.7761 1.22386 44 1.5 44C1.77614 44 2 43.7761 2 43.5H1ZM31 40.5C31 40.2239 30.7761 40 30.5 40C30.2239 40 30 40.2239 30 40.5H31ZM30 43.5C30 43.7761 30.2239 44 30.5 44C30.7761 44 31 43.7761 31 43.5H30ZM10.6464 46.6464C10.4512 46.8417 10.4512 47.1583 10.6464 47.3536C10.8417 47.5488 11.1583 47.5488 11.3536 47.3536L10.6464 46.6464ZM13 45L13.3536 44.6464L13 44.2929L12.6464 44.6464L13 45ZM15 47L14.6464 47.3536L15 47.7071L15.3536 47.3536L15 47ZM17 45L17.3536 44.6464L17 44.2929L16.6464 44.6464L17 45ZM19 47L18.6464 47.3536L19 47.7071L19.3536 47.3536L19 47ZM21 45L21.3536 44.6464L21 44.2929L20.6464 44.6464L21 45ZM22.6464 47.3536C22.8417 47.5488 23.1583 47.5488 23.3536 47.3536C23.5488 47.1583 23.5488 46.8417 23.3536 46.6464L22.6464 47.3536ZM1.5 42.5H30.5V41.5H1.5V42.5ZM1 40.5V43.5H2V40.5H1ZM30 40.5V43.5H31V40.5H30ZM11.3536 47.3536L13.3536 45.3536L12.6464 44.6464L10.6464 46.6464L11.3536 47.3536ZM12.6464 45.3536L14.6464 47.3536L15.3536 46.6464L13.3536 44.6464L12.6464 45.3536ZM15.3536 47.3536L17.3536 45.3536L16.6464 44.6464L14.6464 46.6464L15.3536 47.3536ZM16.6464 45.3536L18.6464 47.3536L19.3536 46.6464L17.3536 44.6464L16.6464 45.3536ZM19.3536 47.3536L21.3536 45.3536L20.6464 44.6464L18.6464 46.6464L19.3536 47.3536ZM20.6464 45.3536L22.6464 47.3536L23.3536 46.6464L21.3536 44.6464L20.6464 45.3536Z" fill="#909294"/>
<circle cx="43.625" cy="21.625" r="8.125" stroke="#909294"/>
<path d="M35.7876 34C35.7876 33.7239 35.5637 33.5 35.2876 33.5C35.0115 33.5 34.7876 33.7239 34.7876 34H35.7876ZM34.7876 35.725C34.7876 36.0011 35.0115 36.225 35.2876 36.225C35.5637 36.225 35.7876 36.0011 35.7876 35.725H34.7876ZM51.9626 34C51.9626 33.7239 51.7387 33.5 51.4626 33.5C51.1865 33.5 50.9626 33.7239 50.9626 34H51.9626ZM50.9626 35.725C50.9626 36.0011 51.1865 36.225 51.4626 36.225C51.7387 36.225 51.9626 36.0011 51.9626 35.725H50.9626ZM37.6466 39.6464C37.4513 39.8417 37.4513 40.1583 37.6466 40.3536C37.8418 40.5488 38.1584 40.5488 38.3537 40.3536L37.6466 39.6464ZM40.0001 38L40.3537 37.6464L40.0001 37.2929L39.6466 37.6464L40.0001 38ZM42.0001 40L41.6466 40.3536L42.0001 40.7071L42.3537 40.3536L42.0001 40ZM44.0001 38L44.3537 37.6464L44.0001 37.2929L43.6466 37.6464L44.0001 38ZM46.0001 40L45.6466 40.3536L46.0001 40.7071L46.3537 40.3536L46.0001 40ZM48.0001 38L48.3537 37.6464L48.0001 37.2929L47.6466 37.6464L48.0001 38ZM49.6466 40.3536C49.8418 40.5488 50.1584 40.5488 50.3537 40.3536C50.5489 40.1583 50.5489 39.8417 50.3537 39.6464L49.6466 40.3536ZM35.2876 35.3625H51.4626V34.3625H35.2876V35.3625ZM34.7876 34V35.725H35.7876V34H34.7876ZM50.9626 34V35.725H51.9626V34H50.9626ZM38.3537 40.3536L40.3537 38.3536L39.6466 37.6464L37.6466 39.6464L38.3537 40.3536ZM39.6466 38.3536L41.6466 40.3536L42.3537 39.6464L40.3537 37.6464L39.6466 38.3536ZM42.3537 40.3536L44.3537 38.3536L43.6466 37.6464L41.6466 39.6464L42.3537 40.3536ZM43.6466 38.3536L45.6466 40.3536L46.3537 39.6464L44.3537 37.6464L43.6466 38.3536ZM46.3537 40.3536L48.3537 38.3536L47.6466 37.6464L45.6466 39.6464L46.3537 40.3536ZM47.6466 38.3536L49.6466 40.3536L50.3537 39.6464L48.3537 37.6464L47.6466 38.3536Z" fill="#909294"/>
</svg>
