<svg width="54" height="54" viewBox="0 0 54 54" fill="none" xmlns="http://www.w3.org/2000/svg">
<path d="M9 19.5C9 19.2239 8.77614 19 8.5 19C8.22386 19 8 19.2239 8 19.5H9ZM8 22.5C8 22.7761 8.22386 23 8.5 23C8.77614 23 9 22.7761 9 22.5H8ZM47 19.5C47 19.2239 46.7761 19 46.5 19C46.2239 19 46 19.2239 46 19.5H47ZM46 22.5C46 22.7761 46.2239 23 46.5 23C46.7761 23 47 22.7761 47 22.5H46ZM20.6464 15.6464C20.4512 15.8417 20.4512 16.1583 20.6464 16.3536C20.8417 16.5488 21.1583 16.5488 21.3536 16.3536L20.6464 15.6464ZM23 14L23.3536 13.6464L23 13.2929L22.6464 13.6464L23 14ZM25 16L24.6464 16.3536L25 16.7071L25.3536 16.3536L25 16ZM27 14L27.3536 13.6464L27 13.2929L26.6464 13.6464L27 14ZM29 16L28.6464 16.3536L29 16.7071L29.3536 16.3536L29 16ZM31 14L31.3536 13.6464L31 13.2929L30.6464 13.6464L31 14ZM32.6464 16.3536C32.8417 16.5488 33.1583 16.5488 33.3536 16.3536C33.5488 16.1583 33.5488 15.8417 33.3536 15.6464L32.6464 16.3536ZM8.5 21.5H46.5V20.5H8.5V21.5ZM8 19.5V22.5H9V19.5H8ZM46 19.5V22.5H47V19.5H46ZM21.3536 16.3536L23.3536 14.3536L22.6464 13.6464L20.6464 15.6464L21.3536 16.3536ZM22.6464 14.3536L24.6464 16.3536L25.3536 15.6464L23.3536 13.6464L22.6464 14.3536ZM25.3536 16.3536L27.3536 14.3536L26.6464 13.6464L24.6464 15.6464L25.3536 16.3536ZM26.6464 14.3536L28.6464 16.3536L29.3536 15.6464L27.3536 13.6464L26.6464 14.3536ZM29.3536 16.3536L31.3536 14.3536L30.6464 13.6464L28.6464 15.6464L29.3536 16.3536ZM30.6464 14.3536L32.6464 16.3536L33.3536 15.6464L31.3536 13.6464L30.6464 14.3536Z" fill="#909294"/>
<path d="M53.5 27C53.5 41.6355 41.6355 53.5 27 53.5C19.7278 53.5 13.1407 50.5714 8.35186 45.8281C3.50277 41.0251 0.5 34.3637 0.5 27C0.5 12.3645 12.3645 0.5 27 0.5C34.3637 0.5 41.0251 3.50277 45.8281 8.35186C50.5714 13.1407 53.5 19.7278 53.5 27Z" stroke="#909294"/>
<rect x="8.5" y="25.5" width="38" height="14" stroke="#909294"/>
</svg>
