<svg width="64" height="64" viewBox="0 0 64 64" fill="none" xmlns="http://www.w3.org/2000/svg">
<path d="M28.6422 48.1768C28.0032 47.5145 27.2326 47.1604 26.4158 47.1604C25.6056 47.1604 24.8284 47.508 24.1631 48.1703L22.0817 50.2359C21.9104 50.1441 21.7391 50.0588 21.5745 49.9736C21.3374 49.8556 21.1134 49.7441 20.9224 49.626C18.9727 48.3932 17.2008 46.7866 15.5014 44.7079C14.678 43.6718 14.1247 42.7997 13.7229 41.9144C14.2631 41.4226 14.7637 40.9111 15.2511 40.4193C15.4355 40.2357 15.62 40.0455 15.8044 39.8619C17.1876 38.4848 17.1876 36.7012 15.8044 35.3241L14.0062 33.5339C13.802 33.3306 13.5912 33.1208 13.3936 32.9109C12.9984 32.5044 12.5834 32.0847 12.1553 31.6912C11.5164 31.0617 10.7523 30.7273 9.94868 30.7273C9.14509 30.7273 8.36784 31.0617 7.70915 31.6912C7.70257 31.6978 7.70257 31.6978 7.69598 31.7044L5.45645 33.9536C4.61333 34.793 4.13249 35.8159 4.0271 37.0028C3.86902 38.9176 4.43549 40.7013 4.87022 41.8685C5.93729 44.7341 7.53131 47.3899 9.90916 50.2359C12.7942 53.6655 16.2655 56.3737 20.2308 58.282C21.7457 58.9967 23.7679 59.8426 26.0272 59.9869C26.1655 59.9935 26.3104 60 26.4422 60C27.9637 60 29.2416 59.4558 30.2428 58.3738C30.2494 58.3606 30.2625 58.3541 30.2691 58.341C30.6116 57.9279 31.0068 57.5541 31.4218 57.1541C31.7051 56.8852 31.9949 56.6032 32.2781 56.3081C32.9302 55.6327 33.2727 54.8458 33.2727 54.0392C33.2727 53.2261 32.9236 52.4458 32.2584 51.79L28.6422 48.1768ZM31.0003 55.0819C30.9937 55.0819 30.9937 55.0884 31.0003 55.0819C30.7434 55.3573 30.4799 55.6065 30.1967 55.8819C29.7685 56.2885 29.3338 56.7147 28.9254 57.1934C28.2601 57.9016 27.4763 58.2361 26.4487 58.2361C26.3499 58.2361 26.2446 58.2361 26.1458 58.2295C24.1895 58.1049 22.3715 57.3442 21.008 56.695C17.2799 54.8983 14.0062 52.3474 11.2858 49.1146C9.0397 46.4194 7.5379 43.9276 6.54328 41.2521C5.9307 39.6193 5.70675 38.3471 5.80555 37.1471C5.87142 36.3799 6.16783 35.7438 6.71454 35.1995L8.96066 32.9634C9.28341 32.6618 9.62593 32.4978 9.96186 32.4978C10.3768 32.4978 10.7128 32.747 10.9235 32.9568C10.9301 32.9634 10.9367 32.97 10.9433 32.9765C11.3451 33.3503 11.7271 33.7372 12.1289 34.1503C12.3331 34.3602 12.5439 34.57 12.7547 34.7864L14.5529 36.5766C15.2511 37.2717 15.2511 37.9143 14.5529 38.6094C14.3619 38.7996 14.1774 38.9898 13.9864 39.1734C13.4331 39.7373 12.9062 40.2619 12.3331 40.7734C12.32 40.7865 12.3068 40.7931 12.3002 40.8062C11.7337 41.3701 11.8391 41.921 11.9577 42.2947C11.9643 42.3144 11.9708 42.3341 11.9774 42.3538C12.4451 43.4817 13.1038 44.544 14.105 45.8096L14.1116 45.8161C15.9295 48.0457 17.8463 49.7834 19.9607 51.1146C20.2308 51.2851 20.5074 51.4228 20.7709 51.5539C21.008 51.672 21.232 51.7835 21.423 51.9015C21.4493 51.9146 21.4757 51.9343 21.502 51.9474C21.726 52.0589 21.9368 52.1113 22.1541 52.1113C22.7008 52.1113 23.0433 51.7703 23.1553 51.6589L25.408 49.4162C25.632 49.1932 25.9877 48.9244 26.4026 48.9244C26.811 48.9244 27.147 49.1801 27.3511 49.4031C27.3577 49.4096 27.3577 49.4096 27.3643 49.4162L30.9937 53.0294C31.6721 53.6983 31.6721 54.3868 31.0003 55.0819Z" fill="#F3F3F4"/>
<path d="M5.2392 24.0226C5.09626 24.5561 5.41284 25.1044 5.9463 25.2473C6.47977 25.3903 7.02811 25.0737 7.17105 24.5402L5.2392 24.0226ZM25.5541 4.93239L25.2953 3.96647L25.5541 4.93239ZM39.7186 4.93239L39.4598 5.89832L39.7186 4.93239ZM59.0676 24.2814L58.1017 24.5402L58.1017 24.5402L59.0676 24.2814ZM39.7186 57.7949L38.8318 57.3326C38.689 57.6066 38.6809 57.9311 38.8097 58.2119C38.9385 58.4926 39.1898 58.6981 39.4906 58.7686L39.7186 57.7949ZM43.8868 51.9622C44.142 51.4725 43.952 50.8685 43.4622 50.6132C42.9725 50.358 42.3685 50.548 42.1132 51.0378L43.8868 51.9622ZM46.772 60.4737C47.3097 60.5996 47.8477 60.2657 47.9737 59.728C48.0996 59.1903 47.7657 58.6523 47.228 58.5263L46.772 60.4737ZM7.17105 24.5402C8.36881 20.0701 10.7221 15.9941 13.9945 12.7217L12.5803 11.3075C9.05967 14.8281 6.52782 19.2134 5.2392 24.0226L7.17105 24.5402ZM13.9945 12.7217C17.2668 9.44939 21.3429 7.09608 25.813 5.89832L25.2953 3.96647C20.4861 5.25509 16.1008 7.78693 12.5803 11.3075L13.9945 12.7217ZM25.813 5.89832C30.2831 4.70056 34.9897 4.70056 39.4598 5.89832L39.9774 3.96647C35.1682 2.67784 30.1045 2.67784 25.2953 3.96647L25.813 5.89832ZM39.4598 5.89832C43.9299 7.09608 48.0059 9.4494 51.2783 12.7217L52.6925 11.3075C49.1719 7.78694 44.7866 5.25509 39.9774 3.96647L39.4598 5.89832ZM51.2783 12.7217C54.5506 15.9941 56.9039 20.0701 58.1017 24.5402L60.0335 24.0226C58.7449 19.2134 56.2131 14.8281 52.6925 11.3075L51.2783 12.7217ZM58.1017 24.5402C59.2994 29.0103 59.2994 33.717 58.1017 38.1871L60.0335 38.7047C61.3222 33.8955 61.3222 28.8318 60.0335 24.0226L58.1017 24.5402ZM58.1017 38.1871C56.9039 42.6572 54.5506 46.7332 51.2783 50.0056L52.6925 51.4198C56.2131 47.8992 58.7449 43.5139 60.0335 38.7047L58.1017 38.1871ZM51.2783 50.0056C48.0059 53.2779 43.9299 55.6312 39.4598 56.829L39.9774 58.7608C44.7866 57.4722 49.1719 54.9403 52.6925 51.4198L51.2783 50.0056ZM40.6053 58.2571L43.8868 51.9622L42.1132 51.0378L38.8318 57.3326L40.6053 58.2571ZM39.4906 58.7686L46.772 60.4737L47.228 58.5263L39.9466 56.8212L39.4906 58.7686Z" fill="#F3F3F4"/>
<path d="M23.5625 29H14.958V27.5322L19.2207 22.8828C19.8359 22.1973 20.2725 21.626 20.5303 21.1689C20.7939 20.7061 20.9258 20.2432 20.9258 19.7803C20.9258 19.1709 20.7529 18.6787 20.4072 18.3037C20.0674 17.9287 19.6074 17.7412 19.0273 17.7412C18.3359 17.7412 17.7998 17.9521 17.4189 18.374C17.0381 18.7959 16.8477 19.373 16.8477 20.1055H14.7119C14.7119 19.3262 14.8877 18.626 15.2393 18.0049C15.5967 17.3779 16.1035 16.8916 16.7598 16.5459C17.4219 16.2002 18.1836 16.0273 19.0449 16.0273C20.2871 16.0273 21.2656 16.3408 21.9805 16.9678C22.7012 17.5889 23.0615 18.4502 23.0615 19.5518C23.0615 20.1904 22.8799 20.8613 22.5166 21.5645C22.1592 22.2617 21.5703 23.0557 20.75 23.9463L17.6211 27.2949H23.5625V29ZM32.4131 24.4385H34.0039V26.1523H32.4131V29H30.2773V26.1523H24.749L24.6875 24.8516L30.207 16.2031H32.4131V24.4385ZM26.9287 24.4385H30.2773V19.0947L30.1191 19.376L26.9287 24.4385Z" fill="#F3F3F4"/>
<path d="M50.4746 32.3896L45.3594 44H43.1182L48.2246 32.917H41.6064V31.2031H50.4746V32.3896Z" fill="#F3F3F4"/>
<path d="M35.6963 36.0986H34.0176L39.0537 22.2031H40.7324L35.6963 36.0986Z" fill="#F3F3F4"/>
</svg>
