<svg width="64" height="64" viewBox="0 0 64 64" fill="none" xmlns="http://www.w3.org/2000/svg">
<path d="M42.1367 41.8555V44.2109H41.7852C40.1914 44.2344 38.918 44.6719 37.9648 45.5234C37.0117 46.375 36.4453 47.582 36.2656 49.1445C37.1797 48.1836 38.3477 47.7031 39.7695 47.7031C41.2773 47.7031 42.4648 48.2344 43.332 49.2969C44.207 50.3594 44.6445 51.7305 44.6445 53.4102C44.6445 55.1445 44.1328 56.5508 43.1094 57.6289C42.0938 58.6992 40.7578 59.2344 39.1016 59.2344C37.3984 59.2344 36.0156 58.6055 34.9531 57.3477C33.8984 56.0898 33.3711 54.4414 33.3711 52.4023V51.4297C33.3711 48.4375 34.0977 46.0938 35.5508 44.3984C37.0117 42.7031 39.1094 41.8555 41.8438 41.8555H42.1367ZM39.0781 50C38.4531 50 37.8789 50.1758 37.3555 50.5273C36.8398 50.8789 36.4609 51.3477 36.2188 51.9336V52.8008C36.2188 54.0664 36.4844 55.0742 37.0156 55.8242C37.5469 56.5664 38.2344 56.9375 39.0781 56.9375C39.9219 56.9375 40.5898 56.6211 41.082 55.9883C41.5742 55.3555 41.8203 54.5234 41.8203 53.4922C41.8203 52.4609 41.5703 51.6211 41.0703 50.9727C40.5703 50.3242 39.9062 50 39.0781 50ZM58.0391 51.8164C58.0391 54.2695 57.5781 56.1211 56.6562 57.3711C55.7422 58.6133 54.3477 59.2344 52.4727 59.2344C50.6289 59.2344 49.2383 58.6289 48.3008 57.418C47.3711 56.1992 46.8945 54.3984 46.8711 52.0156V49.0625C46.8711 46.6094 47.3281 44.7695 48.2422 43.543C49.1641 42.3164 50.5664 41.7031 52.4492 41.7031C54.3164 41.7031 55.707 42.3008 56.6211 43.4961C57.543 44.6914 58.0156 46.4805 58.0391 48.8633V51.8164ZM55.1914 48.6289C55.1914 47.0273 54.9727 45.8555 54.5352 45.1133C54.0977 44.3633 53.4023 43.9883 52.4492 43.9883C51.5195 43.9883 50.8359 44.3438 50.3984 45.0547C49.9609 45.7578 49.7305 46.8594 49.707 48.3594V52.2266C49.707 53.8203 49.9297 55.0078 50.375 55.7891C50.8203 56.5703 51.5195 56.9609 52.4727 56.9609C53.3867 56.9609 54.0625 56.6016 54.5 55.8828C54.9375 55.1562 55.168 54.0234 55.1914 52.4844V48.6289Z" fill="#F3F3F4"/>
<rect x="31" y="2" width="2" height="4" fill="#F3F3F4"/>
<rect x="28" y="1" width="8" height="2" rx="1" fill="#F3F3F4"/>
<path d="M58.86 33.5C59.4896 33.5 60.0024 32.9894 59.9772 32.3603C59.7783 27.3901 58.2815 22.5513 55.6267 18.3293C52.7694 13.7851 48.6868 10.1403 43.849 7.81438C39.0112 5.48849 33.6149 4.57613 28.2814 5.18234C22.9479 5.78855 17.894 7.88867 13.7016 11.2409C9.50921 14.5932 6.34874 19.0613 4.58408 24.1308C2.81942 29.2003 2.52231 34.6651 3.72697 39.896C4.93162 45.1269 7.58906 49.9113 11.3933 53.6983C14.9279 57.2169 19.3189 59.7415 24.1235 61.0289C24.7317 61.1918 25.3427 60.804 25.4812 60.1898V60.1898C25.6197 59.5756 25.2332 58.9679 24.6256 58.8028C20.2398 57.6113 16.2321 55.298 13.0019 52.0825C9.50194 48.5984 7.05709 44.1968 5.94881 39.3843C4.84053 34.5719 5.11386 29.5442 6.73735 24.8803C8.36084 20.2164 11.2685 16.1057 15.1255 13.0216C18.9825 9.93758 23.6321 8.00546 28.5389 7.44775C33.4457 6.89004 38.4103 7.72941 42.8611 9.86923C47.3118 12.009 51.0678 15.3623 53.6966 19.5429C56.1228 23.4014 57.4977 27.8198 57.6952 32.3603C57.7226 32.9893 58.2304 33.5 58.86 33.5V33.5Z" fill="#F3F3F4"/>
<circle cx="32" cy="13" r="1" fill="#F3F3F4"/>
<path d="M31.2929 33.7071C31.6834 34.0976 32.3166 34.0976 32.7071 33.7071C33.0976 33.3166 33.0976 32.6834 32.7071 32.2929L31.2929 33.7071ZM18.2071 17.7929C17.8166 17.4024 17.1834 17.4024 16.7929 17.7929C16.4024 18.1834 16.4024 18.8166 16.7929 19.2071L18.2071 17.7929ZM32.7071 32.2929L18.2071 17.7929L16.7929 19.2071L31.2929 33.7071L32.7071 32.2929Z" fill="#F3F3F4"/>
</svg>
